<?xml version="1.0" encoding="UTF-8"?>
<svg xmlns="http://www.w3.org/2000/svg" xmlns:xlink="http://www.w3.org/1999/xlink" width="5rem" height="5rem" viewBox="0 0 150 100" version="1.1">
<g id="surface1">
<path style=" stroke:none;fill-rule:nonzero;fill:rgb(32.549021%,50.980395%,63.137257%);fill-opacity:1;" d="M 91.414062 69.238281 L 91.160156 69.238281 L 91.160156 69.097656 L 91.835938 69.097656 L 91.835938 69.238281 L 91.585938 69.238281 L 91.585938 69.941406 L 91.414062 69.941406 Z M 92.761719 69.273438 L 92.757812 69.273438 L 92.507812 69.941406 L 92.394531 69.941406 L 92.148438 69.273438 L 92.144531 69.273438 L 92.144531 69.941406 L 91.980469 69.941406 L 91.980469 69.097656 L 92.222656 69.097656 L 92.453125 69.695312 L 92.679688 69.097656 L 92.921875 69.097656 L 92.921875 69.941406 L 92.761719 69.941406 Z M 68.929688 52.03125 C 68.929688 52.03125 67.179688 53.046875 70.171875 53.390625 C 73.796875 53.804688 75.648438 53.746094 79.640625 52.988281 C 79.640625 52.988281 80.691406 53.648438 82.15625 54.21875 C 73.207031 58.054688 61.898438 53.996094 68.929688 52.03125 M 67.835938 47.023438 C 67.835938 47.023438 65.875 48.472656 68.867188 48.785156 C 72.738281 49.183594 75.796875 49.214844 81.085938 48.199219 C 81.085938 48.199219 81.816406 48.9375 82.96875 49.34375 C 72.144531 52.507812 60.089844 49.59375 67.835938 47.023438 "/>
<path style=" stroke:none;fill-rule:nonzero;fill:rgb(97.254902%,59.607846%,11.372549%);fill-opacity:1;" d="M 77.054688 38.53125 C 79.261719 41.070312 76.476562 43.355469 76.476562 43.355469 C 76.476562 43.355469 82.078125 40.464844 79.503906 36.84375 C 77.101562 33.46875 75.261719 31.789062 85.234375 26.007812 C 85.234375 26.007812 69.578125 29.917969 77.054688 38.53125 "/>
<path style=" stroke:none;fill-rule:nonzero;fill:rgb(32.549021%,50.980395%,63.137257%);fill-opacity:1;" d="M 88.894531 55.734375 C 88.894531 55.734375 90.1875 56.796875 87.472656 57.621094 C 82.304688 59.1875 65.964844 59.660156 61.425781 57.683594 C 59.796875 56.976562 62.855469 55.992188 63.816406 55.785156 C 64.820312 55.566406 65.394531 55.605469 65.394531 55.605469 C 63.582031 54.328125 53.667969 58.117188 60.359375 59.203125 C 78.609375 62.160156 93.628906 57.867188 88.894531 55.734375 M 69.769531 41.835938 C 69.769531 41.835938 61.457031 43.808594 66.824219 44.527344 C 69.09375 44.832031 73.609375 44.761719 77.820312 44.410156 C 81.257812 44.121094 84.710938 43.503906 84.710938 43.503906 C 84.710938 43.503906 83.5 44.023438 82.621094 44.621094 C 74.183594 46.839844 57.878906 45.808594 62.570312 43.539062 C 66.542969 41.617188 69.769531 41.835938 69.769531 41.835938 M 84.675781 50.171875 C 93.257812 45.710938 89.289062 41.425781 86.523438 42.003906 C 85.84375 42.144531 85.539062 42.269531 85.539062 42.269531 C 85.539062 42.269531 85.792969 41.875 86.273438 41.703125 C 91.75 39.777344 95.964844 47.382812 84.503906 50.394531 C 84.503906 50.394531 84.636719 50.277344 84.675781 50.171875 "/>
<path style=" stroke:none;fill-rule:nonzero;fill:rgb(97.254902%,59.607846%,11.372549%);fill-opacity:1;" d="M 79.503906 16.667969 C 79.503906 16.667969 84.257812 21.417969 75 28.726562 C 67.574219 34.589844 73.304688 37.933594 74.996094 41.753906 C 70.664062 37.84375 67.480469 34.402344 69.617188 31.199219 C 72.746094 26.496094 81.421875 24.214844 79.503906 16.667969 "/>
<path style=" stroke:none;fill-rule:nonzero;fill:rgb(32.549021%,50.980395%,63.137257%);fill-opacity:1;" d="M 70.613281 62.25 C 78.847656 62.777344 91.492188 61.957031 91.792969 58.0625 C 91.792969 58.0625 91.214844 59.539062 84.988281 60.710938 C 77.957031 62.035156 69.289062 61.878906 64.148438 61.03125 C 64.148438 61.03125 65.199219 61.902344 70.613281 62.25 M 69.261719 77.140625 C 68.484375 77.8125 67.664062 78.191406 66.929688 78.191406 C 65.878906 78.191406 65.308594 77.5625 65.308594 76.550781 C 65.308594 75.457031 65.917969 74.65625 68.359375 74.65625 L 69.261719 74.65625 L 69.261719 77.140625 M 71.40625 79.558594 L 71.40625 72.070312 C 71.40625 70.160156 70.316406 68.898438 67.683594 68.898438 C 66.148438 68.898438 64.804688 69.277344 63.710938 69.757812 L 64.027344 71.085938 C 64.886719 70.769531 66.003906 70.476562 67.097656 70.476562 C 68.609375 70.476562 69.261719 71.085938 69.261719 72.347656 L 69.261719 73.292969 L 68.507812 73.292969 C 64.824219 73.292969 63.164062 74.722656 63.164062 76.867188 C 63.164062 78.714844 64.257812 79.769531 66.320312 79.769531 C 67.644531 79.769531 68.632812 79.222656 69.554688 78.421875 L 69.722656 79.558594 Z M 78.558594 79.558594 L 75.886719 79.558594 L 72.667969 69.085938 L 75.003906 69.085938 L 77 75.519531 L 77.445312 77.453125 C 78.453125 74.65625 79.167969 71.820312 79.527344 69.085938 L 81.796875 69.085938 C 81.1875 72.535156 80.09375 76.320312 78.558594 79.558594 M 88.816406 77.140625 C 88.039062 77.8125 87.214844 78.191406 86.480469 78.191406 C 85.429688 78.191406 84.859375 77.5625 84.859375 76.550781 C 84.859375 75.457031 85.472656 74.65625 87.910156 74.65625 L 88.816406 74.65625 L 88.816406 77.140625 M 90.960938 79.558594 L 90.960938 72.070312 C 90.960938 70.160156 89.867188 68.898438 87.238281 68.898438 C 85.703125 68.898438 84.355469 69.277344 83.265625 69.757812 L 83.578125 71.085938 C 84.441406 70.769531 85.558594 70.476562 86.648438 70.476562 C 88.164062 70.476562 88.816406 71.085938 88.816406 72.347656 L 88.816406 73.292969 L 88.058594 73.292969 C 84.375 73.292969 82.71875 74.722656 82.71875 76.867188 C 82.71875 78.714844 83.808594 79.769531 85.871094 79.769531 C 87.195312 79.769531 88.183594 79.222656 89.109375 78.421875 L 89.277344 79.558594 Z M 60.816406 81.335938 C 60.203125 82.226562 59.214844 82.933594 58.136719 83.332031 L 57.078125 82.089844 C 57.898438 81.664062 58.605469 80.984375 58.933594 80.347656 C 59.214844 79.785156 59.335938 79.058594 59.335938 77.316406 L 59.335938 65.363281 L 61.613281 65.363281 L 61.613281 77.152344 C 61.613281 79.480469 61.425781 80.417969 60.816406 81.335938 "/>
</g>
</svg>
